<?xml version="1.0" encoding="UTF-8"?>
<svg id="_图层_1" data-name="图层 1" xmlns="http://www.w3.org/2000/svg" viewBox="0 0 103.5 32.03">
  <defs>
    <style>
      .cls-1 {
        stroke: rgba(255, 255, 255, .14);
      }

      .cls-1, .cls-2 {
        fill: none;
      }

      .cls-3 {
        fill: #fff;
      }

      .cls-2 {
        stroke: #fff;
        stroke-linecap: round;
        stroke-linejoin: round;
        stroke-width: 2px;
      }

      .cls-4 {
        fill: #1a1a1a;
      }
    </style>
  </defs>
  <rect class="cls-4" x=".5" y=".03" width="103" height="32" rx="6" ry="6"/>
  <rect class="cls-1" x=".5" y=".5" width="102" height="31" rx="5.5" ry="5.5"/>
  <path class="cls-1" d="M31.5,1v30"/>
  <path class="cls-2" d="M16.18,17.96v-9.33"/>
  <path class="cls-2" d="M23.18,17.96v3.11c0,.86-.7,1.56-1.56,1.56h-10.89c-.86,0-1.56-.7-1.56-1.56v-3.11"/>
  <path class="cls-2" d="M12.29,14.07l3.89,3.89,3.89-3.89"/>
  <g>
    <path class="cls-3" d="M54.53,20.98c-.35.58-.86,1.04-1.53,1.36-.67.32-1.47.49-2.39.49-1.28,0-2.38-.3-3.29-.9-.91-.6-1.51-1.4-1.8-2.39l1.3-.76c.32.83.8,1.46,1.44,1.91.64.44,1.43.67,2.38.67.86,0,1.54-.19,2.02-.58.48-.38.72-.92.72-1.6,0-.55-.15-1-.45-1.34s-.67-.61-1.11-.8c-.44-.19-1.04-.4-1.81-.63-.85-.25-1.54-.49-2.06-.72-.52-.23-.96-.57-1.32-1.03-.36-.46-.54-1.06-.54-1.8s.19-1.41.58-1.95c.38-.55.92-.96,1.59-1.24.68-.28,1.44-.42,2.28-.42,1.18,0,2.13.26,2.85.77.73.52,1.21,1.17,1.47,1.96l-1.3.76c-.28-.64-.66-1.13-1.14-1.49-.49-.36-1.13-.54-1.94-.54s-1.47.18-1.96.55c-.49.37-.74.85-.74,1.47,0,.46.13.83.4,1.12.27.29.61.52,1.02.68.41.17.97.35,1.67.56.9.26,1.63.52,2.18.77s1.03.63,1.42,1.13c.4.5.59,1.17.59,2,0,.76-.17,1.42-.52,2.01Z"/>
    <path class="cls-3" d="M61.99,22.32c-.49.34-1.12.5-1.89.5-1.88,0-2.83-1.07-2.83-3.22v-5h-1.55v-1.33h1.55v-2.61h1.53v2.61h2.72v1.33h-2.72v4.82c0,1.31.49,1.96,1.48,1.96.43,0,.83-.11,1.21-.32l.5,1.26Z"/>
    <path class="cls-3" d="M69.73,14.03c.67.64,1.01,1.56,1.01,2.75v5.85h-1.35c-.04-.61-.06-1.01-.07-1.19-.29.46-.67.8-1.16,1.04-.49.23-1.04.35-1.67.35s-1.16-.11-1.68-.33c-.52-.22-.94-.55-1.25-.99-.31-.44-.47-.96-.47-1.58,0-.92.38-1.65,1.12-2.19s1.72-.8,2.91-.8c.67,0,1.37.09,2.09.27v-.16c0-.88-.18-1.53-.53-1.95-.35-.43-.89-.64-1.61-.64-.58,0-1.06.12-1.44.36-.38.24-.71.59-.97,1.06l-1.17-.67c.29-.65.76-1.17,1.41-1.56.65-.39,1.4-.58,2.24-.58,1.06,0,1.92.32,2.59.96ZM69.2,18.49c-.76-.19-1.45-.29-2.07-.29-.78,0-1.38.15-1.81.45s-.64.72-.64,1.26c0,.5.18.9.54,1.18.36.28.83.42,1.4.42.71,0,1.31-.21,1.82-.62.5-.41.76-.99.76-1.72v-.68Z"/>
    <path class="cls-3" d="M77.11,13.07c.36,0,.68.07.97.2v1.49c-.24-.17-.55-.25-.94-.25-.68,0-1.23.29-1.64.85-.41.57-.61,1.4-.61,2.49v4.77h-1.53v-9.34h1.35c.01.46.04.95.09,1.48.52-1.13,1.28-1.69,2.3-1.69ZM85.03,22.32c-.49.34-1.12.5-1.89.5-1.87,0-2.81-1.07-2.81-3.22v-5h-1.51v-1.33h1.51v-2.61h1.53v2.61h2.7v1.33h-2.7v4.82c0,.74.13,1.26.41,1.54.27.28.62.42,1.05.42s.83-.11,1.21-.32l.5,1.26Z"/>
  </g>
</svg>